<svg width="512" height="512" viewBox="0 0 512 512" fill="none" xmlns="http://www.w3.org/2000/svg">
<rect width="512" height="512" fill="#E5E5E5"/>
<g clip-path="url(#clip0_0_1)">
<rect width="512" height="512" rx="150" fill="#0095D3"/>
<path d="M185 69.5625C124.011 69.5625 74.5625 119.029 74.5625 180C74.5625 241.006 124.011 290.438 185 290.438C245.989 290.438 295.438 241.006 295.438 180C295.438 119.029 245.989 69.5625 185 69.5625ZM185 269.063C135.779 269.063 95.9375 229.238 95.9375 180C95.9375 130.795 135.781 90.9375 185 90.9375C234.203 90.9375 274.063 130.78 274.063 180C274.063 229.22 234.238 269.063 185 269.063Z" fill="white" fill-opacity="0.6"/>
<path d="M185 269.063C135.779 269.063 95.9375 229.238 95.9375 180C95.9375 130.795 135.781 90.9375 185 90.9375C234.203 90.9375 274.063 130.78 274.063 180C274.063 229.22 234.238 269.063 185 269.063Z" fill="white" fill-opacity="0.6"/>
<path d="M232.757 155.419C232.757 185.278 200.507 185.737 200.507 196.772V199.594C200.507 202.545 198.114 204.938 195.163 204.938H174.836C171.885 204.938 169.492 202.545 169.492 199.594V195.738C169.492 179.82 181.56 173.457 190.68 168.344C198.5 163.96 203.293 160.978 203.293 155.172C203.293 147.492 193.497 142.395 185.577 142.395C175.25 142.395 170.483 147.283 163.782 155.74C161.976 158.02 158.679 158.444 156.361 156.686L143.97 147.291C141.696 145.567 141.187 142.363 142.793 140.004C153.314 124.555 166.715 115.875 187.58 115.875C209.432 115.875 232.757 132.932 232.757 155.419ZM203.703 229.875C203.703 240.188 195.313 248.578 185 248.578C174.687 248.578 166.297 240.188 166.297 229.875C166.297 219.562 174.687 211.172 185 211.172C195.313 211.172 203.703 219.562 203.703 229.875Z" fill="white"/>
<g clip-path="url(#clip1_0_1)">
<ellipse cx="307.024" cy="266.762" rx="29.3176" ry="29.3568" fill="#025CB7"/>
<path d="M182.326 307.383C179.574 308.487 177.214 310.393 175.552 312.854C173.889 315.316 173.001 318.221 173 321.194V437.553C173 442.815 178.298 446.413 183.17 444.461L247.167 415.25V306.904C243.069 299.476 239.718 292.243 237.316 285.326L182.326 307.383ZM306.5 374.19C299.978 374.19 293.808 371.318 289.576 366.307C280.463 355.522 270.77 343.241 262 330.644V415.245L351 444.995V330.648C342.23 343.241 332.542 355.527 323.424 366.311C319.192 371.318 313.022 374.19 306.5 374.19ZM429.83 281.914L365.833 311.125V445L430.674 418.992C433.427 417.888 435.787 415.983 437.449 413.521C439.111 411.059 440 408.155 440 405.181V288.822C440 283.56 434.702 279.962 429.83 281.914Z" fill="white" fill-opacity="0.6"/>
<path d="M306.5 207C274.242 207 248.094 233.222 248.094 265.57C248.094 291.722 286.266 339.388 300.891 356.689C303.853 360.194 309.151 360.194 312.109 356.689C326.734 339.388 364.906 291.722 364.906 265.57C364.906 233.222 338.758 207 306.5 207ZM306.5 285.094C295.746 285.094 287.031 276.355 287.031 265.57C287.031 254.786 295.746 246.047 306.5 246.047C317.254 246.047 325.969 254.786 325.969 265.57C325.969 276.355 317.254 285.094 306.5 285.094Z" fill="url(#paint0_linear_0_1)"/>
</g>
</g>
<defs>
<linearGradient id="paint0_linear_0_1" x1="307.024" y1="262.568" x2="307.024" y2="462.824" gradientUnits="userSpaceOnUse">
<stop stop-color="white"/>
<stop offset="1" stop-color="#FFCECE" stop-opacity="0.23"/>
</linearGradient>
<clipPath id="clip0_0_1">
<rect width="512" height="512" rx="150" fill="white"/>
</clipPath>
<clipPath id="clip1_0_1">
<rect width="267" height="238" fill="white" transform="translate(173 207)"/>
</clipPath>
</defs>
</svg>
